<?xml version="1.0" standalone="no"?>
<!DOCTYPE svg PUBLIC "-//W3C//DTD SVG 20010904//EN"
 "http://www.w3.org/TR/2001/REC-SVG-20010904/DTD/svg10.dtd">
<svg version="1.0" xmlns="http://www.w3.org/2000/svg"
 width="512.000000pt" height="512.000000pt" viewBox="0 0 512.000000 512.000000"
 preserveAspectRatio="xMidYMid meet">
<metadata>
Created by potrace 1.14, written by Peter Selinger 2001-2017
</metadata>
<g transform="translate(0.000000,512.000000) scale(0.100000,-0.100000)"
fill="#000000" stroke="none">
<path d="M2166 4465 c-47 -17 -91 -58 -118 -110 -21 -40 -21 -41 -21 -1795 0
-1661 1 -1757 18 -1790 37 -75 95 -117 169 -126 89 -11 175 36 218 120 l21 41
0 1755 c0 1754 0 1755 -21 1795 -53 103 -162 148 -266 110z"/>
<path d="M1503 4027 c-52 -27 -100 -87 -109 -136 -4 -20 -7 -625 -7 -1346 1
-1428 -2 -1346 55 -1408 78 -83 218 -90 299 -15 35 33 59 70 66 104 3 16 6
621 6 1345 l0 1317 -22 43 c-31 59 -45 74 -97 98 -59 28 -136 27 -191 -2z"/>
<path d="M2806 3825 c-48 -17 -91 -58 -118 -110 -21 -40 -21 -48 -21 -1155 0
-1048 1 -1117 18 -1150 37 -75 95 -117 169 -126 89 -11 175 36 218 120 21 41
21 44 21 1156 0 1107 0 1115 -21 1155 -53 103 -162 148 -266 110z"/>
<path d="M4077 3822 c-43 -18 -84 -58 -109 -107 -21 -40 -21 -48 -21 -1155 0
-1113 0 -1115 21 -1156 55 -107 177 -153 279 -103 61 30 111 91 119 148 4 25
7 536 7 1136 0 1087 0 1090 -21 1131 -53 104 -172 150 -275 106z"/>
<path d="M910 3620 c-78 -22 -143 -88 -156 -159 -4 -20 -7 -432 -7 -916 0
-804 2 -883 17 -920 35 -82 106 -129 196 -128 90 0 162 47 196 128 15 36 17
119 18 919 1 599 -2 893 -10 922 -14 56 -56 109 -104 134 -43 22 -112 31 -150
20z"/>
<path d="M3426 3389 c-51 -27 -70 -46 -97 -98 l-22 -43 0 -687 c1 -758 -2
-728 65 -793 80 -78 215 -78 298 0 10 9 28 37 41 60 l22 44 0 686 c-1 617 -2
691 -17 725 -21 47 -68 95 -112 113 -50 21 -132 18 -178 -7z"/>
</g>
</svg>
